<?xml version="1.0" encoding="UTF-8" standalone="no"?>
<!-- Svg Vector Icons : http://www.onlinewebfonts.com/icon -->

<svg
   version="1.1"
   x="0px"
   y="0px"
   viewBox="0 0 1000 666"
   enable-background="new 0 0 1000 1000"
   xml:space="preserve"
   id="svg888"
   width="1000"
   height="666"
   xmlns="http://www.w3.org/2000/svg"
   xmlns:svg="http://www.w3.org/2000/svg"><defs
   id="defs892"><clipPath
     clipPathUnits="userSpaceOnUse"
     id="clipPath13302"><rect
       style="fill:#f2e1c1;fill-opacity:1;stroke:none;stroke-width:25.6069;stroke-opacity:1"
       id="rect13304"
       width="4555.4507"
       height="2982.635"
       x="-1.7256933"
       y="-1982.8701" /></clipPath><clipPath
     clipPathUnits="userSpaceOnUse"
     id="clipPath13306"><rect
       style="fill:#f2e1c1;fill-opacity:1;stroke:none;stroke-width:5.66929;stroke-opacity:1"
       id="rect13308"
       width="1000"
       height="666"
       x="0"
       y="0" /></clipPath><clipPath
     clipPathUnits="userSpaceOnUse"
     id="clipPath13310"><rect
       style="fill:#f2e1c1;fill-opacity:1;stroke:none;stroke-width:5.66929;stroke-opacity:1"
       id="rect13312"
       width="1000"
       height="666"
       x="0"
       y="0" /></clipPath><clipPath
     clipPathUnits="userSpaceOnUse"
     id="clipPath13314"><rect
       style="fill:#f2e1c1;fill-opacity:1;stroke:none;stroke-width:5.66929;stroke-opacity:1"
       id="rect13316"
       width="1000"
       height="666"
       x="0"
       y="0" /></clipPath></defs>
<metadata
   id="metadata882"> Svg Vector Icons : http://www.onlinewebfonts.com/icon </metadata>
<g
   id="layer3"><rect
     style="fill:#f2e1c1;fill-opacity:1;stroke:none;stroke-width:5.66929"
     id="rect13023"
     width="1313.8516"
     height="837.29938"
     x="-108.2282"
     y="-69.262894"
     clip-path="url(#clipPath13314)" /></g><g
   id="layer2"><rect
     style="fill:#f6ae99;fill-opacity:1;stroke:#f6ae99;stroke-width:5.66929;stroke-opacity:1"
     id="rect1204"
     width="1339.6666"
     height="815.80829"
     x="153.09544"
     y="-298.74728"
     clip-path="url(#clipPath13310)" /><text
     xml:space="preserve"
     style="font-style:normal;font-weight:normal;font-size:40px;line-height:1.25;font-family:sans-serif;fill:#716f81;fill-opacity:1;stroke:none"
     x="192.79634"
     y="455.5614"
     id="text3097"
     clip-path="url(#clipPath13306)"><tspan
       id="tspan3095"
       x="192.79634"
       y="455.5614"
       style="font-style:normal;font-variant:normal;font-weight:bold;font-stretch:normal;font-size:128px;font-family:'Fira Code';-inkscape-font-specification:'Fira Code, Bold';font-variant-ligatures:normal;font-variant-caps:normal;font-variant-numeric:normal;font-variant-east-asian:normal;fill:#716f81;fill-opacity:1">FLASHLIGHT</tspan></text></g>
<g
   id="layer1"><g
     id="g886"
     transform="matrix(0.21951725,0,0,0.22329249,0.37881947,442.76)"
     style="fill:#716f81;fill-opacity:1;stroke:none"
     clip-path="url(#clipPath13302)"><path
       d="m 886.4,115.5 c 44.9,44.9 75.7,92 92.4,141.3 16.7,49.3 14.9,82.6 -5.4,100 L 827.7,502.3 c -11.6,11.6 -34,21 -67.4,28.3 -33.4,7.3 -68.1,8.7 -104.3,4.3 L 212.6,978.3 c -13,13 -33.7,15.2 -61.9,6.5 C 122.5,976.1 95.3,958 69.2,930.5 43.1,904.4 25.4,877.6 16,850.1 6.6,822.6 8.4,802.3 21.4,789.2 L 464.8,345.8 c -4.3,-36.2 -2.9,-71 4.3,-104.3 7.2,-33.3 16.7,-55.8 28.3,-67.4 L 645.1,26.4 c 17.4,-20.3 50.7,-21.7 100,-4.3 49.3,17.3 96.3,48.4 141.3,93.4 v 0 M 399.5,558.8 c 23.2,23.2 52.2,18.1 86.9,-15.2 33.3,-33.3 38.4,-63 15.2,-89.1 -10.1,-10.1 -23.9,-13.8 -41.3,-10.9 -17.4,2.9 -33.3,11.6 -47.8,26.1 -14.5,14.5 -22.8,30.1 -25,46.7 -2.1,16.7 1.9,30.8 12,42.4 v 0 M 764.7,235 c 21.7,21.7 46.4,39.8 73.9,54.3 27.5,14.5 50,23.5 67.4,27.2 17.4,3.7 27.5,4 30.4,1.1 1.4,-2.9 0,-12.7 -4.3,-29.3 -4.3,-16.6 -13.8,-38.4 -28.3,-65.2 C 889.3,196.3 871.2,172 849.5,150.3 827.8,128.6 803.9,110.5 777.8,96 751.7,81.5 730.3,72.1 713.7,67.7 697,63.4 687.3,62.6 684.4,65.5 c -2.9,2.9 -2.5,13 1.1,30.4 3.6,17.4 12.7,39.8 27.2,67.4 14.5,27.6 31.7,51.4 52,71.7 v 0"
       id="path884"
       style="fill:#716f81;fill-opacity:1;stroke:none" /></g></g></svg>
