<?xml version="1.0" encoding="UTF-8" standalone="no"?>
<!-- Svg Vector Icons : http://www.onlinewebfonts.com/icon -->

<svg
   version="1.1"
   x="0px"
   y="0px"
   viewBox="0 0 594.7774 594.7774"
   enable-background="new 0 0 1000 1000"
   xml:space="preserve"
   id="svg888"
   width="594.7774"
   height="594.7774"
   xmlns="http://www.w3.org/2000/svg"
   xmlns:svg="http://www.w3.org/2000/svg"><defs
   id="defs892"><clipPath
     clipPathUnits="userSpaceOnUse"
     id="clipPath13302"><rect
       style="fill:#f2e1c1;fill-opacity:1;stroke:none;stroke-width:25.6069;stroke-opacity:1"
       id="rect13304"
       width="4555.4507"
       height="2982.635"
       x="-1.7256933"
       y="-1982.8701" /></clipPath><clipPath
     clipPathUnits="userSpaceOnUse"
     id="clipPath13306"><rect
       style="fill:#f2e1c1;fill-opacity:1;stroke:none;stroke-width:5.66929;stroke-opacity:1"
       id="rect13308"
       width="1000"
       height="666"
       x="0"
       y="0" /></clipPath><clipPath
     clipPathUnits="userSpaceOnUse"
     id="clipPath13310"><rect
       style="fill:#f2e1c1;fill-opacity:1;stroke:none;stroke-width:5.66929;stroke-opacity:1"
       id="rect13312"
       width="1000"
       height="666"
       x="0"
       y="0" /></clipPath><clipPath
     clipPathUnits="userSpaceOnUse"
     id="clipPath13314"><rect
       style="fill:#f2e1c1;fill-opacity:1;stroke:none;stroke-width:5.66929;stroke-opacity:1"
       id="rect13316"
       width="1000"
       height="666"
       x="0"
       y="0" /></clipPath><clipPath
     clipPathUnits="userSpaceOnUse"
     id="clipPath13306-0"><rect
       style="fill:#f2e1c1;fill-opacity:1;stroke:none;stroke-width:5.66929;stroke-opacity:1"
       id="rect13308-8"
       width="1000"
       height="666"
       x="0"
       y="0" /></clipPath><clipPath
     clipPathUnits="userSpaceOnUse"
     id="clipPath18627"><rect
       style="fill:none;fill-opacity:1;stroke:#000000;stroke-width:5.22258;stroke-opacity:1"
       id="rect18629"
       width="594.7774"
       height="594.7774"
       x="0"
       y="71.222595" /></clipPath><clipPath
     clipPathUnits="userSpaceOnUse"
     id="clipPath18631"><rect
       style="fill:none;fill-opacity:1;stroke:#000000;stroke-width:5.22258;stroke-opacity:1"
       id="rect18633"
       width="594.7774"
       height="594.7774"
       x="0"
       y="71.222595" /></clipPath></defs>
<metadata
   id="metadata882"> Svg Vector Icons : http://www.onlinewebfonts.com/icon </metadata>
<g
   id="layer3"
   transform="translate(0,-71.222595)"><rect
     style="fill:#f9f1e0;fill-opacity:1;stroke:none;stroke-width:5.66929"
     id="rect13023"
     width="1313.8516"
     height="837.29938"
     x="-108.2282"
     y="-69.262894"
     clip-path="url(#clipPath18631)" /></g><g
   id="layer2"
   transform="translate(0,-71.222595)"><rect
     style="fill:#f6ae99;fill-opacity:1;stroke:#f6ae99;stroke-width:5.66929;stroke-opacity:1"
     id="rect1204"
     width="1339.6666"
     height="815.80829"
     x="153.09544"
     y="-298.74728"
     clip-path="url(#clipPath18627)" /><g
     aria-label="FLASH"
     transform="translate(-3.627839,-113.12481)"
     id="text3097"
     clip-path="url(#clipPath13306)"
     style="font-size:40px;line-height:1.25;letter-spacing:0px;fill:#716f81"><path
       d="m 228.5707,379.94294 v 24.09026 h 31.90154 v 15.42564 H 228.5707 v 36.10256 h -21.5959 v -90.97846 h 59.79898 l -2.2318,15.36 z"
       style="font-weight:bold;font-size:128px;font-family:'Fira Code';-inkscape-font-specification:'Fira Code, Bold'"
       id="path1489" /><path
       d="m 283.77486,455.5614 v -90.97846 h 21.53026 v 73.97744 h 39.45025 l -2.23179,17.00102 z"
       style="font-weight:bold;font-size:128px;font-family:'Fira Code';-inkscape-font-specification:'Fira Code, Bold'"
       id="path1491" /><path
       d="m 402.84774,435.93473 h -26.65026 l -4.7918,19.62667 h -22.51487 l 27.8318,-90.97846 h 26.12513 l 27.83179,90.97846 h -23.04 z m -23.23693,-15.62256 h 19.69231 l -9.84615,-40.23795 z"
       style="font-weight:bold;font-size:128px;font-family:'Fira Code';-inkscape-font-specification:'Fira Code, Bold'"
       id="path1493" /><path
       d="m 503.67241,428.97679 q 0,8.46769 -4.46359,14.96615 -4.39795,6.49846 -12.66872,10.17436 -8.27077,3.6759 -19.88923,3.6759 -12.86564,0 -21.5959,-3.74154 -8.66461,-3.80718 -14.37538,-9.38667 L 441.576,432.58704 q 5.05436,4.39795 11.15897,6.82667 6.10462,2.36308 13.39077,2.36308 6.76103,0 10.96205,-2.88821 4.20103,-2.95385 4.20103,-8.27077 0,-4.98872 -3.54462,-7.81128 -3.47897,-2.82256 -12.99692,-5.71077 -15.95077,-4.85744 -22.7118,-11.42154 -6.69538,-6.62974 -6.69538,-17.00102 0,-8.33641 4.59487,-14.24411 4.66051,-5.90769 12.4718,-8.99282 7.81128,-3.15077 17.19795,-3.15077 10.5682,0 18.64205,3.08513 8.07384,3.01949 13.98153,8.66462 l -10.17435,11.6841 q -4.59488,-3.87282 -9.9118,-5.71077 -5.31692,-1.90359 -10.83077,-1.90359 -6.17025,0 -9.91179,2.29744 -3.74154,2.23179 -3.74154,6.62974 0,2.88821 1.64102,4.85744 1.64103,1.96923 5.71077,3.74153 4.06975,1.70667 11.29026,4.00411 8.59897,2.62564 14.70359,6.30154 6.17026,3.61025 9.38667,9.1241 3.28205,5.51384 3.28205,13.9159 z"
       style="font-weight:bold;font-size:128px;font-family:'Fira Code';-inkscape-font-specification:'Fira Code, Bold'"
       id="path1495" /><path
       d="m 558.2858,455.5614 v -38.33436 h -22.05539 v 38.33436 h -21.53025 v -90.97846 h 21.53025 v 34.92103 h 22.05539 v -34.92103 h 21.53025 v 90.97846 z"
       style="font-weight:bold;font-size:128px;font-family:'Fira Code';-inkscape-font-specification:'Fira Code, Bold'"
       id="path1497" /></g><g
     aria-label="LIGHT"
     id="text3097-8"
     clip-path="url(#clipPath13306-0)"
     style="font-size:40px;line-height:1.25;fill:#716f81"><path
       d="m 205.00557,455.5614 v -90.97846 h 21.53026 v 73.97744 h 39.45025 l -2.23179,17.00102 z"
       style="font-weight:bold;font-size:128px;font-family:'Fira Code';-inkscape-font-specification:'Fira Code, Bold'"
       id="path1500" /><path
       d="m 340.4887,364.58294 v 15.75385 h -18.77333 v 59.40512 h 18.77333 v 15.81949 h -59.07692 v -15.81949 h 18.77334 v -59.40512 h -18.77334 v -15.75385 z"
       style="font-weight:bold;font-size:128px;font-family:'Fira Code';-inkscape-font-specification:'Fira Code, Bold'"
       id="path1502" /><path
       d="m 393.06722,457.7932 q -19.3641,0 -29.6041,-12.20923 -10.17436,-12.27488 -10.17436,-35.70872 0,-15.49128 5.64513,-26.05949 5.64513,-10.63385 15.22872,-16.08205 9.58359,-5.44821 21.39897,-5.44821 9.97744,0 16.8041,3.08513 6.82667,3.08513 12.14359,8.13949 l -11.29025,11.6841 q -4.13539,-3.6759 -7.94257,-5.4482 -3.80718,-1.77231 -8.66461,-1.77231 -6.10462,0 -10.89641,3.28205 -4.72616,3.21641 -7.48308,10.30564 -2.75692,7.02359 -2.75692,18.44513 0,11.88103 1.90359,18.90461 1.96923,7.02359 5.90769,10.10872 3.93846,3.01949 9.97744,3.01949 3.21641,0 6.03897,-0.72205 2.82256,-0.78769 5.25128,-2.03487 v -20.80821 h -11.42154 l -2.10051,-15.09743 h 33.87077 v 45.22666 q -6.82667,4.20103 -14.70359,6.69539 -7.81128,2.49436 -17.13231,2.49436 z"
       style="font-weight:bold;font-size:128px;font-family:'Fira Code';-inkscape-font-specification:'Fira Code, Bold'"
       id="path1504" /><path
       d="m 479.51651,455.5614 v -38.33436 h -22.05538 v 38.33436 h -21.53026 v -90.97846 h 21.53026 v 34.92103 h 22.05538 v -34.92103 h 21.53026 v 90.97846 z"
       style="font-weight:bold;font-size:128px;font-family:'Fira Code';-inkscape-font-specification:'Fira Code, Bold'"
       id="path1506" /><path
       d="m 557.89195,381.05884 v 74.50256 h -21.53026 v -74.50256 h -25.53435 v -16.4759 h 73.64923 l -2.2318,16.4759 z"
       style="font-weight:bold;font-size:128px;font-family:'Fira Code';-inkscape-font-specification:'Fira Code, Bold'"
       id="path1508" /></g></g>
<g
   id="layer1"
   transform="translate(0,-71.222595)"><g
     id="g886"
     transform="matrix(0.21951725,0,0,0.22329249,0.37881947,442.76)"
     style="fill:#716f81;fill-opacity:1;stroke:none"
     clip-path="url(#clipPath13302)"><path
       d="m 886.4,115.5 c 44.9,44.9 75.7,92 92.4,141.3 16.7,49.3 14.9,82.6 -5.4,100 L 827.7,502.3 c -11.6,11.6 -34,21 -67.4,28.3 -33.4,7.3 -68.1,8.7 -104.3,4.3 L 212.6,978.3 c -13,13 -33.7,15.2 -61.9,6.5 C 122.5,976.1 95.3,958 69.2,930.5 43.1,904.4 25.4,877.6 16,850.1 6.6,822.6 8.4,802.3 21.4,789.2 L 464.8,345.8 c -4.3,-36.2 -2.9,-71 4.3,-104.3 7.2,-33.3 16.7,-55.8 28.3,-67.4 L 645.1,26.4 c 17.4,-20.3 50.7,-21.7 100,-4.3 49.3,17.3 96.3,48.4 141.3,93.4 v 0 M 399.5,558.8 c 23.2,23.2 52.2,18.1 86.9,-15.2 33.3,-33.3 38.4,-63 15.2,-89.1 -10.1,-10.1 -23.9,-13.8 -41.3,-10.9 -17.4,2.9 -33.3,11.6 -47.8,26.1 -14.5,14.5 -22.8,30.1 -25,46.7 -2.1,16.7 1.9,30.8 12,42.4 v 0 M 764.7,235 c 21.7,21.7 46.4,39.8 73.9,54.3 27.5,14.5 50,23.5 67.4,27.2 17.4,3.7 27.5,4 30.4,1.1 1.4,-2.9 0,-12.7 -4.3,-29.3 -4.3,-16.6 -13.8,-38.4 -28.3,-65.2 C 889.3,196.3 871.2,172 849.5,150.3 827.8,128.6 803.9,110.5 777.8,96 751.7,81.5 730.3,72.1 713.7,67.7 697,63.4 687.3,62.6 684.4,65.5 c -2.9,2.9 -2.5,13 1.1,30.4 3.6,17.4 12.7,39.8 27.2,67.4 14.5,27.6 31.7,51.4 52,71.7 v 0"
       id="path884"
       style="fill:#716f81;fill-opacity:1;stroke:none" /></g></g></svg>
